# Blender v3.0.1 OBJ File: ''
# www.blender.org
mtllib tree.mtl
o Cylinder
v 0.000000 0.053963 -0.090720
v 0.053324 0.061756 -0.073394
v 0.086280 0.053963 -0.028034
v 0.086280 0.061756 0.028034
v 0.053324 0.053963 0.073394
v -0.000000 0.061756 0.090720
v -0.053324 0.053963 0.073394
v -0.086280 0.061756 0.028034
v -0.086280 0.053963 -0.028034
v -0.053324 0.061756 -0.073394
v -0.000000 0.158005 -0.032086
v 0.000000 0.157989 -0.060492
v -0.000000 0.248943 -0.013667
v -0.000000 0.248930 -0.024426
v 0.014357 0.256723 -0.019761
v 0.008033 0.248943 -0.011057
v 0.035557 0.165782 -0.048939
v 0.018859 0.158005 -0.025958
v 0.023231 0.248930 -0.007548
v 0.012998 0.248943 -0.004223
v 0.057532 0.157989 -0.018693
v 0.030515 0.158005 -0.009915
v 0.023231 0.256723 0.007548
v 0.012998 0.248943 0.004223
v 0.057532 0.165782 0.018693
v 0.030515 0.158005 0.009915
v 0.014357 0.248930 0.019761
v 0.008033 0.248943 0.011057
v 0.035557 0.157989 0.048939
v 0.018859 0.158005 0.025958
v -0.000000 0.256723 0.024426
v -0.000000 0.248943 0.013667
v -0.000000 0.165782 0.060492
v -0.000000 0.158005 0.032086
v -0.014357 0.248930 0.019761
v -0.008033 0.248943 0.011057
v -0.035557 0.157989 0.048939
v -0.018859 0.158005 0.025958
v -0.023231 0.256723 0.007548
v -0.012998 0.248943 0.004223
v -0.057532 0.165782 0.018693
v -0.030515 0.158005 0.009915
v 0.000000 0.290526 0.000000
v -0.023231 0.248930 -0.007548
v -0.012998 0.248943 -0.004223
v -0.057532 0.157989 -0.018693
v -0.030515 0.158005 -0.009915
v -0.014357 0.256723 -0.019761
v -0.008033 0.248943 -0.011057
v -0.035557 0.165782 -0.048939
v -0.018859 0.158005 -0.025958
v 0.000000 0.212102 -0.036868
v 0.021670 0.204309 -0.029827
v 0.035063 0.212102 -0.011393
v 0.035063 0.204309 0.011393
v 0.021670 0.212102 0.029827
v -0.000000 0.204309 0.036868
v -0.021670 0.212102 0.029827
v -0.035063 0.204309 0.011393
v -0.035063 0.212102 -0.011393
v -0.021670 0.204309 -0.029827
v 0.012418 0.204309 -0.017092
v 0.020093 0.204309 -0.006529
v 0.020093 0.204309 0.006529
v 0.012418 0.204309 0.017092
v -0.000000 0.204309 0.021127
v -0.012418 0.204309 0.017092
v -0.020093 0.204309 0.006529
v -0.020093 0.204309 -0.006529
v -0.012418 0.204309 -0.017092
v -0.000000 0.204309 -0.021127
v 0.045247 0.105184 -0.062278
v 0.073212 0.112977 -0.023788
v 0.073212 0.105184 0.023788
v 0.045247 0.112977 0.062278
v -0.000000 0.105184 0.076979
v -0.045247 0.112977 0.062278
v -0.073212 0.105184 0.023788
v -0.073212 0.112977 -0.023788
v -0.045247 0.105184 -0.062278
v -0.000000 0.112977 -0.076979
v 0.019834 0.105184 -0.027300
v 0.032093 0.105184 -0.010427
v 0.032093 0.105184 0.010428
v 0.019834 0.105184 0.027300
v -0.000000 0.105184 0.033744
v -0.019834 0.105184 0.027300
v -0.032093 0.105184 0.010428
v -0.032093 0.105184 -0.010428
v -0.019834 0.105184 -0.027300
v -0.000000 0.105184 -0.033744
v 0.000000 -0.002913 -0.032511
v -0.000000 0.062110 -0.015005
v 0.019110 -0.002913 -0.026302
v 0.008820 0.062110 -0.012139
v 0.030920 -0.002913 -0.010047
v 0.014271 0.062110 -0.004637
v 0.030920 -0.002913 0.010047
v 0.014271 0.062110 0.004637
v 0.019110 -0.002913 0.026302
v 0.008820 0.062110 0.012139
v -0.000000 -0.002913 0.032511
v -0.000000 0.062110 0.015005
v -0.019110 -0.002913 0.026302
v -0.008820 0.062110 0.012139
v -0.030920 -0.002913 0.010047
v -0.014271 0.062110 0.004637
v -0.030920 -0.002913 -0.010047
v -0.014271 0.062110 -0.004637
v -0.019110 -0.002913 -0.026302
v -0.008820 0.062110 -0.012139
v -0.000000 0.029072 -0.017704
v 0.010406 0.029072 -0.014323
v 0.016838 0.029072 -0.005471
v 0.016838 0.029072 0.005471
v 0.010406 0.029072 0.014323
v -0.000000 0.029072 0.017704
v -0.010406 0.029072 0.014323
v -0.016838 0.029072 0.005471
v -0.016838 0.029072 -0.005471
v -0.010406 0.029072 -0.014323
vt 0.198275 0.827531
vt 0.226397 0.818393
vt 0.243777 0.794471
vt 0.243777 0.764902
vt 0.226397 0.740980
vt 0.198275 0.731843
vt 0.170153 0.740980
vt 0.152773 0.764902
vt 0.152773 0.794471
vt 0.170153 0.818393
vt 0.068698 0.840823
vt 0.068698 0.846123
vt 0.048763 0.846123
vt 0.048763 0.840823
vt 0.068698 0.862736
vt 0.048763 0.862736
vt 0.068698 0.871744
vt 0.068698 0.879348
vt 0.048763 0.879348
vt 0.048763 0.871744
vt 0.068698 0.895961
vt 0.048763 0.895961
vt 0.088633 0.840823
vt 0.088633 0.846123
vt 0.088633 0.862736
vt 0.088633 0.871744
vt 0.088633 0.879348
vt 0.088633 0.895960
vt 0.108568 0.840823
vt 0.108568 0.846123
vt 0.108568 0.862736
vt 0.108568 0.871744
vt 0.108568 0.879348
vt 0.108568 0.895960
vt 0.128503 0.840823
vt 0.128503 0.846123
vt 0.128503 0.862736
vt 0.128503 0.871744
vt 0.128503 0.879348
vt 0.128503 0.895960
vt 0.148438 0.840823
vt 0.148438 0.846123
vt 0.148438 0.862736
vt 0.148438 0.871744
vt 0.148438 0.879348
vt 0.148438 0.895960
vt 0.168372 0.840823
vt 0.168372 0.846123
vt 0.168372 0.862736
vt 0.168372 0.871744
vt 0.168372 0.879348
vt 0.168372 0.895960
vt 0.188307 0.840823
vt 0.188307 0.846123
vt 0.188307 0.862736
vt 0.188307 0.871744
vt 0.188307 0.879348
vt 0.188307 0.895960
vt 0.208242 0.840823
vt 0.208242 0.846123
vt 0.208242 0.862736
vt 0.208242 0.871744
vt 0.208242 0.879348
vt 0.208242 0.895960
vt 0.228177 0.840823
vt 0.228177 0.846123
vt 0.228177 0.862736
vt 0.228177 0.871744
vt 0.228177 0.879348
vt 0.228177 0.895961
vt 0.248112 0.840823
vt 0.248112 0.846123
vt 0.248112 0.862736
vt 0.248112 0.871744
vt 0.248112 0.879348
vt 0.248112 0.895960
vt 0.228177 0.912573
vt 0.208242 0.912573
vt 0.188307 0.912573
vt 0.168372 0.912573
vt 0.148438 0.912573
vt 0.128503 0.912573
vt 0.108568 0.912573
vt 0.088633 0.912573
vt 0.068698 0.912573
vt 0.048763 0.912573
vt 0.248112 0.871744
vt 0.228177 0.871744
vt 0.208242 0.871744
vt 0.188307 0.871744
vt 0.168372 0.871744
vt 0.148438 0.871744
vt 0.128503 0.871744
vt 0.108568 0.871744
vt 0.088633 0.871744
vt 0.068698 0.871744
vt 0.048763 0.871744
vt 0.246431 0.840823
vt 0.228177 0.840823
vt 0.208242 0.840823
vt 0.188307 0.840823
vt 0.168372 0.840823
vt 0.148438 0.840823
vt 0.128503 0.840823
vt 0.108568 0.840823
vt 0.088633 0.840823
vt 0.068698 0.840823
vt 0.050444 0.840823
vt 0.068698 0.829524
vt 0.048763 0.829524
vt 0.088633 0.829524
vt 0.108568 0.829524
vt 0.128503 0.829524
vt 0.148438 0.829524
vt 0.168372 0.829524
vt 0.188307 0.829524
vt 0.208242 0.829524
vt 0.228177 0.829524
vt 0.248112 0.829524
vt 0.263737 0.540013
vt 0.263737 0.590657
vt 0.243802 0.590657
vt 0.243802 0.540013
vt 0.223867 0.590657
vt 0.223867 0.540013
vt 0.203932 0.590657
vt 0.203932 0.540013
vt 0.183997 0.590657
vt 0.183997 0.540013
vt 0.164063 0.590657
vt 0.164063 0.540013
vt 0.144128 0.590657
vt 0.144128 0.540013
vt 0.124193 0.590657
vt 0.124193 0.540013
vt 0.104258 0.590657
vt 0.104258 0.540013
vt 0.142347 0.479852
vt 0.114225 0.488989
vt 0.086103 0.479852
vt 0.068723 0.455930
vt 0.068723 0.426361
vt 0.086103 0.402439
vt 0.114225 0.393301
vt 0.142347 0.402439
vt 0.159727 0.426361
vt 0.159727 0.455930
vt 0.084323 0.590657
vt 0.084323 0.540013
vt 0.064388 0.590657
vt 0.064388 0.540013
vt 0.213900 0.488989
vt 0.242022 0.479852
vt 0.259402 0.455930
vt 0.259402 0.426361
vt 0.242022 0.402439
vt 0.213900 0.393301
vt 0.185778 0.402439
vt 0.168398 0.426361
vt 0.168398 0.455930
vt 0.185778 0.479852
vt 0.084323 0.490982
vt 0.064388 0.490982
vt 0.104258 0.490982
vt 0.124193 0.490982
vt 0.144128 0.490982
vt 0.164063 0.490982
vt 0.183997 0.490982
vt 0.203932 0.490982
vt 0.223867 0.490982
vt 0.243802 0.490982
vt 0.263737 0.490982
vn 0.0000 -1.0000 -0.0000
vn -0.3042 0.6556 -0.6911
vn -0.1706 -0.9810 -0.0927
vn -0.3821 0.4729 -0.7940
vn -0.3859 -0.8931 -0.2310
vn -0.5632 0.6556 -0.5029
vn -0.0355 -0.9810 -0.1909
vn -0.6370 0.4729 -0.6087
vn -0.1005 -0.8931 -0.4384
vn -0.7513 0.6556 0.0758
vn -0.1409 -0.9810 0.1336
vn -0.8732 0.4729 0.1180
vn -0.3390 -0.8931 0.2956
vn -0.6523 0.6556 0.3803
vn -0.1925 -0.9810 -0.0253
vn -0.7758 0.4729 0.4178
vn -0.4480 -0.8931 -0.0399
vn -0.1601 0.6556 0.7379
vn 0.0835 -0.9810 0.1753
vn -0.1576 0.4729 0.8669
vn 0.1764 -0.8931 0.4138
vn 0.1601 0.6556 0.7379
vn -0.0835 -0.9810 0.1753
vn 0.1576 0.4729 0.8669
vn -0.1764 -0.8931 0.4138
vn 0.6523 0.6556 0.3803
vn 0.1925 -0.9810 -0.0253
vn 0.7758 0.4729 0.4178
vn 0.4480 -0.8931 -0.0399
vn 0.7513 0.6556 0.0758
vn 0.1409 -0.9810 0.1336
vn 0.8732 0.4729 0.1180
vn 0.3390 -0.8931 0.2956
vn 0.5632 0.6556 -0.5029
vn 0.0355 -0.9810 -0.1909
vn 0.6370 0.4729 -0.6087
vn 0.1005 -0.8931 -0.4384
vn 0.3042 0.6556 -0.6911
vn 0.1706 -0.9810 -0.0927
vn 0.3821 0.4729 -0.7940
vn 0.3859 -0.8931 -0.2310
vn 0.0053 0.5064 -0.8623
vn 0.8185 0.5064 -0.2715
vn 0.8217 0.5064 -0.2614
vn 0.5112 0.5064 0.6945
vn 0.5025 0.5064 0.7007
vn -0.5025 0.5064 0.7007
vn -0.5112 0.5064 0.6945
vn -0.8217 0.5064 -0.2614
vn -0.8185 0.5064 -0.2715
vn -0.0053 0.5064 -0.8623
vn -0.1197 -0.9470 -0.2981
vn 0.3205 -0.9470 0.0217
vn 0.2465 -0.9470 -0.2059
vn 0.0784 -0.9470 0.3115
vn 0.2720 -0.9470 0.1708
vn -0.2720 -0.9470 0.1708
vn -0.0784 -0.9470 0.3115
vn -0.2465 -0.9470 -0.2059
vn -0.3205 -0.9470 0.0217
vn 0.1197 -0.9470 -0.2981
vn -0.1338 0.6583 -0.7408
vn -0.6632 0.6583 -0.3562
vn -0.7459 0.6583 -0.1017
vn -0.5437 0.6583 0.5207
vn -0.3272 0.6583 0.6780
vn 0.3272 0.6583 0.6780
vn 0.5437 0.6583 0.5207
vn 0.7459 0.6583 -0.1017
vn 0.6632 0.6583 -0.3562
vn 0.1338 0.6583 -0.7408
vn -0.0782 -0.9892 -0.1240
vn 0.1421 -0.9892 0.0360
vn 0.0937 -0.9892 -0.1127
vn 0.0096 -0.9892 0.1462
vn 0.1361 -0.9892 0.0543
vn -0.1361 -0.9892 0.0543
vn -0.0096 -0.9892 0.1462
vn -0.0937 -0.9892 -0.1127
vn -0.1421 -0.9892 0.0360
vn 0.0782 -0.9892 -0.1240
vn -0.1303 0.7510 -0.6473
vn -0.5753 0.7510 -0.3240
vn -0.6559 0.7510 -0.0761
vn -0.4859 0.7510 0.4471
vn -0.2750 0.7510 0.6003
vn 0.2750 0.7510 0.6003
vn 0.4859 0.7510 0.4471
vn 0.6559 0.7510 -0.0761
vn 0.5753 0.7510 -0.3240
vn 0.1303 0.7510 -0.6473
vn 0.3081 0.0775 -0.9482
vn 0.8066 0.0775 -0.5860
vn 0.9970 0.0775 0.0000
vn 0.8066 0.0775 0.5860
vn 0.3081 0.0775 0.9482
vn -0.3081 0.0775 0.9482
vn -0.8066 0.0775 0.5860
vn -0.9970 0.0775 0.0000
vn 0.0000 1.0000 -0.0000
vn -0.8066 0.0775 -0.5860
vn -0.3081 0.0775 -0.9482
vn -0.2828 0.4030 -0.8704
vn -0.7404 0.4030 -0.5380
vn -0.9152 0.4030 0.0000
vn -0.7404 0.4030 0.5380
vn -0.2828 0.4030 0.8704
vn 0.2828 0.4030 0.8704
vn 0.7404 0.4030 0.5380
vn 0.9152 0.4030 0.0000
vn 0.7404 0.4030 -0.5380
vn 0.2828 0.4030 -0.8704
g Cylinder_Cylinder_Material.001
usemtl Material.001
s off
f 1/1/1 2/2/1 3/3/1 4/4/1 5/5/1 6/6/1 7/7/1 8/8/1 9/9/1 10/10/1
f 80/11/2 51/12/2 11/13/2 81/14/2
f 51/12/3 50/15/3 12/16/3 11/13/3
f 61/17/4 49/18/4 13/19/4 52/20/4
f 49/18/5 48/21/5 14/22/5 13/19/5
f 79/23/6 47/24/6 51/12/6 80/11/6
f 47/24/7 46/25/7 50/15/7 51/12/7
f 60/26/8 45/27/8 49/18/8 61/17/8
f 45/27/9 44/28/9 48/21/9 49/18/9
f 78/29/10 42/30/10 47/24/10 79/23/10
f 42/30/11 41/31/11 46/25/11 47/24/11
f 59/32/12 40/33/12 45/27/12 60/26/12
f 40/33/13 39/34/13 44/28/13 45/27/13
f 77/35/14 38/36/14 42/30/14 78/29/14
f 38/36/15 37/37/15 41/31/15 42/30/15
f 58/38/16 36/39/16 40/33/16 59/32/16
f 36/39/17 35/40/17 39/34/17 40/33/17
f 76/41/18 34/42/18 38/36/18 77/35/18
f 34/42/19 33/43/19 37/37/19 38/36/19
f 57/44/20 32/45/20 36/39/20 58/38/20
f 32/45/21 31/46/21 35/40/21 36/39/21
f 75/47/22 30/48/22 34/42/22 76/41/22
f 30/48/23 29/49/23 33/43/23 34/42/23
f 56/50/24 28/51/24 32/45/24 57/44/24
f 28/51/25 27/52/25 31/46/25 32/45/25
f 74/53/26 26/54/26 30/48/26 75/47/26
f 26/54/27 25/55/27 29/49/27 30/48/27
f 55/56/28 24/57/28 28/51/28 56/50/28
f 24/57/29 23/58/29 27/52/29 28/51/29
f 73/59/30 22/60/30 26/54/30 74/53/30
f 22/60/31 21/61/31 25/55/31 26/54/31
f 54/62/32 20/63/32 24/57/32 55/56/32
f 20/63/33 19/64/33 23/58/33 24/57/33
f 72/65/34 18/66/34 22/60/34 73/59/34
f 18/66/35 17/67/35 21/61/35 22/60/35
f 53/68/36 16/69/36 20/63/36 54/62/36
f 16/69/37 15/70/37 19/64/37 20/63/37
f 81/71/38 11/72/38 18/66/38 72/65/38
f 11/72/39 12/73/39 17/67/39 18/66/39
f 52/74/40 13/75/40 16/69/40 53/68/40
f 13/75/41 14/76/41 15/70/41 16/69/41
f 14/76/42 43/77/42 15/70/42
f 15/70/43 43/78/43 19/64/43
f 19/64/44 43/79/44 23/58/44
f 23/58/45 43/80/45 27/52/45
f 27/52/46 43/81/46 31/46/46
f 31/46/47 43/82/47 35/40/47
f 35/40/48 43/83/48 39/34/48
f 39/34/49 43/84/49 44/28/49
f 44/28/50 43/85/50 48/21/50
f 48/21/51 43/86/51 14/22/51
f 71/87/52 52/74/52 53/68/52 62/88/52
f 62/88/53 53/68/53 54/62/53 63/89/53
f 63/89/54 54/62/54 55/56/54 64/90/54
f 64/90/55 55/56/55 56/50/55 65/91/55
f 65/91/56 56/50/56 57/44/56 66/92/56
f 66/92/57 57/44/57 58/38/57 67/93/57
f 67/93/58 58/38/58 59/32/58 68/94/58
f 68/94/59 59/32/59 60/26/59 69/95/59
f 69/95/60 60/26/60 61/17/60 70/96/60
f 70/96/61 61/17/61 52/20/61 71/97/61
f 50/15/62 70/96/62 71/97/62 12/16/62
f 46/25/63 69/95/63 70/96/63 50/15/63
f 41/31/64 68/94/64 69/95/64 46/25/64
f 37/37/65 67/93/65 68/94/65 41/31/65
f 33/43/66 66/92/66 67/93/66 37/37/66
f 29/49/67 65/91/67 66/92/67 33/43/67
f 25/55/68 64/90/68 65/91/68 29/49/68
f 21/61/69 63/89/69 64/90/69 25/55/69
f 17/67/70 62/88/70 63/89/70 21/61/70
f 12/73/71 71/87/71 62/88/71 17/67/71
f 91/98/72 81/71/72 72/65/72 82/99/72
f 82/99/73 72/65/73 73/59/73 83/100/73
f 83/100/74 73/59/74 74/53/74 84/101/74
f 84/101/75 74/53/75 75/47/75 85/102/75
f 85/102/76 75/47/76 76/41/76 86/103/76
f 86/103/77 76/41/77 77/35/77 87/104/77
f 87/104/78 77/35/78 78/29/78 88/105/78
f 88/105/79 78/29/79 79/23/79 89/106/79
f 89/106/80 79/23/80 80/11/80 90/107/80
f 90/107/81 80/11/81 81/14/81 91/108/81
f 10/109/82 90/107/82 91/108/82 1/110/82
f 9/111/83 89/106/83 90/107/83 10/109/83
f 8/112/84 88/105/84 89/106/84 9/111/84
f 7/113/85 87/104/85 88/105/85 8/112/85
f 6/114/86 86/103/86 87/104/86 7/113/86
f 5/115/87 85/102/87 86/103/87 6/114/87
f 4/116/88 84/101/88 85/102/88 5/115/88
f 3/117/89 83/100/89 84/101/89 4/116/89
f 2/118/90 82/99/90 83/100/90 3/117/90
f 1/119/91 91/98/91 82/99/91 2/118/91
f 112/120/92 93/121/92 95/122/92 113/123/92
f 113/123/93 95/122/93 97/124/93 114/125/93
f 114/125/94 97/124/94 99/126/94 115/127/94
f 115/127/95 99/126/95 101/128/95 116/129/95
f 116/129/96 101/128/96 103/130/96 117/131/96
f 117/131/97 103/130/97 105/132/97 118/133/97
f 118/133/98 105/132/98 107/134/98 119/135/98
f 119/135/99 107/134/99 109/136/99 120/137/99
f 95/138/100 93/139/100 111/140/100 109/141/100 107/142/100 105/143/100 103/144/100 101/145/100 99/146/100 97/147/100
f 120/137/101 109/136/101 111/148/101 121/149/101
f 121/149/102 111/148/102 93/150/102 112/151/102
f 92/152/1 94/153/1 96/154/1 98/155/1 100/156/1 102/157/1 104/158/1 106/159/1 108/160/1 110/161/1
f 110/162/103 121/149/103 112/151/103 92/163/103
f 108/164/104 120/137/104 121/149/104 110/162/104
f 106/165/105 119/135/105 120/137/105 108/164/105
f 104/166/106 118/133/106 119/135/106 106/165/106
f 102/167/107 117/131/107 118/133/107 104/166/107
f 100/168/108 116/129/108 117/131/108 102/167/108
f 98/169/109 115/127/109 116/129/109 100/168/109
f 96/170/110 114/125/110 115/127/110 98/169/110
f 94/171/111 113/123/111 114/125/111 96/170/111
f 92/172/112 112/120/112 113/123/112 94/171/112
